<?xml version="1.0" ?><svg id="Line" style="enable-background:new 0 0 128 128;" version="1.1" viewBox="0 0 128 128" xml:space="preserve" xmlns="http://www.w3.org/2000/svg" xmlns:xlink="http://www.w3.org/1999/xlink"><g><path d="M112,71V61c0-0.552-0.448-1-1-1H95c-0.552,0-1,0.448-1,1v10c0,0.553,0.448,1,1,1h16C111.552,72,112,71.553,112,71z M110,70   H96v-8h14V70z"/><path d="M112,99V89c0-0.553-0.448-1-1-1H95c-0.552,0-1,0.447-1,1v10c0,0.553,0.448,1,1,1h16C111.552,100,112,99.553,112,99z    M110,98H96v-8h14V98z"/><path d="M34,71V61c0-0.552-0.448-1-1-1H17c-0.552,0-1,0.448-1,1v10c0,0.553,0.448,1,1,1h16C33.552,72,34,71.553,34,71z M32,70H18   v-8h14V70z"/><path d="M34,99V89c0-0.553-0.448-1-1-1H17c-0.552,0-1,0.447-1,1v10c0,0.553,0.448,1,1,1h16C33.552,100,34,99.553,34,99z M32,98H18   v-8h14V98z"/><path d="M126,116h-1v-0.582c0-5.052-4.002-9.176-9-9.397V48h1c0.552,0,1-0.448,1-1v-8c0-0.552-0.448-1-1-1h-8v-2h1   c0.552,0,1-0.448,1-1v-4c0-0.552-0.448-1-1-1H99V13c0-0.552-0.448-1-1-1h-3V9.139c0-1.124-0.562-2.135-1.502-2.704   c-0.896-0.544-1.989-0.579-2.958-0.071L87.73,8h-3.46l-2.85-1.658c-0.93-0.487-2.021-0.45-2.918,0.093   C77.562,7.004,77,8.015,77,9.139V12h-3c-0.552,0-1,0.448-1,1v3h-2v-2.861c0-1.336-0.599-2.492-1.525-2.942   c-0.676-0.329-1.448-0.238-2.104,0.279L65.625,12h-3.251l-1.787-1.559c-0.615-0.483-1.387-0.575-2.063-0.245   C57.599,10.647,57,11.802,57,13.139V16h-2v-3c0-0.552-0.448-1-1-1h-3V9.139c0-1.124-0.562-2.135-1.502-2.704   c-0.897-0.544-1.989-0.579-2.958-0.071L43.73,8h-3.46l-2.85-1.658c-0.93-0.487-2.022-0.45-2.918,0.093   C33.562,7.004,33,8.015,33,9.139V12h-3c-0.552,0-1,0.448-1,1v17H18c-0.552,0-1,0.448-1,1v4c0,0.552,0.448,1,1,1h1v2h-8   c-0.552,0-1,0.448-1,1v8c0,0.552,0.448,1,1,1h1v58.021c-4.998,0.221-9,4.345-9,9.397V116H2c-0.552,0-1,0.447-1,1v4   c0,0.553,0.448,1,1,1h124c0.552,0,1-0.447,1-1v-4C127,116.447,126.552,116,126,116z M106,106v-2h8v2H106z M102,106v-3   c0-0.553-0.448-1-1-1h-9V86h9c0.552,0,1-0.447,1-1V75c0-0.553-0.448-1-1-1h-9V58h9c0.552,0,1-0.448,1-1v-8.54   c0.578,0.519,1.254,0.926,2,1.19V57c0,0.552,0.448,1,1,1h9v16h-9c-0.552,0-1,0.447-1,1v10c0,0.553,0.448,1,1,1h9v16h-9   c-0.552,0-1,0.447-1,1v3H102z M92,106v-2h8v2H92z M88,106V77.153C88,65.489,78.511,56,66.847,56h-5.693   C49.489,56,40,65.489,40,77.153V106h-2V75.692C38,63.731,47.731,54,59.692,54h8.615C80.269,54,90,63.731,90,75.692V106H88z M47,106   v-0.123c0-1.035,0.842-1.877,1.877-1.877h30.245c1.035,0,1.877,0.842,1.877,1.877V106H47z M64.001,64.508   c2.024,2.424,7.633,10.15,7.15,20.837c-0.041,0.909,0.506,1.714,1.36,2.004c0.851,0.288,1.768-0.018,2.285-0.76   c0.968-1.39,1.602-3.059,1.895-4.982C78.75,84.794,81.464,91.935,74.37,102h-2.274c2.603-3.728,4.878-9.944,4.918-12.432   c0.006-0.375-0.199-0.723-0.531-0.899c-0.332-0.175-0.735-0.151-1.042,0.064c-1.579,1.106-3.868,0.86-5.185-0.52   c-0.76-0.794-1.151-1.846-1.101-2.96c0.314-6.949-2.165-12.588-4.299-16.095c-0.181-0.299-0.505-0.48-0.854-0.48   s-0.673,0.182-0.854,0.479c-2.135,3.507-4.614,9.146-4.3,16.097c0.05,1.113-0.34,2.165-1.1,2.959   c-1.322,1.386-3.621,1.628-5.203,0.508c-0.309-0.219-0.712-0.244-1.045-0.067c-0.333,0.176-0.539,0.524-0.533,0.9   c0.042,2.488,2.327,8.712,4.937,12.445H53.63c-7.189-10.193-4.419-17.289-2.328-20.437c0.29,1.941,0.926,3.625,1.902,5.025   c0.517,0.742,1.433,1.047,2.284,0.76c0.854-0.29,1.401-1.095,1.36-2.004C56.367,74.685,61.979,66.938,64.001,64.508z M58.437,102   c-2.2-2.436-4.405-7.693-5.18-10.758c2.062,0.569,4.433-0.074,5.936-1.646c1.14-1.193,1.727-2.767,1.652-4.431   C60.594,79.628,62.263,74.975,64,71.7c1.736,3.274,3.405,7.928,3.155,13.464c-0.075,1.665,0.512,3.239,1.653,4.433   c1.498,1.567,3.859,2.216,5.918,1.65c-0.769,3.06-2.968,8.319-5.164,10.753H58.437z M79.123,102h-2.336   c9.491-14.614-0.132-23.647-0.234-23.74c-0.294-0.266-0.715-0.334-1.078-0.174c-0.362,0.16-0.595,0.519-0.595,0.914   c0,2.598-0.596,4.826-1.729,6.435c0.624-13.817-8.069-22.764-8.439-23.138c-0.375-0.379-1.046-0.379-1.421,0   c-0.371,0.374-9.063,9.321-8.444,23.15c-1.128-1.62-1.725-3.849-1.725-6.446c0-0.396-0.233-0.754-0.595-0.914   c-0.363-0.16-0.784-0.091-1.078,0.174c-0.11,0.101-2.705,2.497-3.881,6.854c-1.001,3.71-1.107,9.561,3.646,16.886h-2.335   c-2.138,0-3.877,1.739-3.877,3.877V106h-3V77.153C42,66.592,50.592,58,61.153,58h5.693C77.408,58,86,66.592,86,77.153V106h-3   v-0.123C83,103.739,81.261,102,79.123,102z M28,106v-2h8v2H28z M24,106v-3c0-0.553-0.448-1-1-1h-9V86h9c0.552,0,1-0.447,1-1V75   c0-0.553-0.448-1-1-1h-9V58h9c0.552,0,1-0.448,1-1v-7.35c0.746-0.265,1.422-0.672,2-1.19V57c0,0.552,0.448,1,1,1h9v16h-9   c-0.552,0-1,0.447-1,1v10c0,0.553,0.448,1,1,1h9v16h-9c-0.552,0-1,0.447-1,1v3H24z M14,106v-2h8v2H14z M14,76h8v8h-8V76z M18,44   c0-2.206,1.794-4,4-4s4,1.794,4,4s-1.794,4-4,4S18,46.206,18,44z M110,44c0,2.206-1.794,4-4,4s-4-1.794-4-4s1.794-4,4-4   S110,41.794,110,44z M92,76h8v8h-8V76z M68.308,52h-8.615C50.011,52,41.672,57.84,38,66.18V48h0.54c1.099,1.224,2.688,2,4.46,2   s3.36-0.776,4.46-2H59.54c1.099,1.224,2.688,2,4.46,2s3.36-0.776,4.46-2H80.54c1.099,1.224,2.688,2,4.46,2s3.36-0.776,4.46-2H90   v18.18C86.328,57.84,77.989,52,68.308,52z M28,48h8v8h-8V48z M36,84h-8v-8h8V84z M92,48h8v8h-8V48z M100,44   c0,0.702,0.128,1.373,0.35,2h-9.7c0.223-0.627,0.35-1.298,0.35-2c0-1.538-0.586-2.937-1.54-4h12.081   C100.586,41.063,100,42.462,100,44z M89,44c0,2.206-1.794,4-4,4s-4-1.794-4-4s1.794-4,4-4S89,41.794,89,44z M79.35,46h-9.7   c0.223-0.627,0.35-1.298,0.35-2c0-1.538-0.586-2.937-1.54-4H80.54C79.586,41.063,79,42.462,79,44C79,44.702,79.128,45.373,79.35,46   z M68,44c0,2.206-1.794,4-4,4s-4-1.794-4-4s1.794-4,4-4S68,41.794,68,44z M58.35,46h-9.7c0.223-0.627,0.35-1.298,0.35-2   c0-1.538-0.586-2.937-1.54-4H59.54C58.586,41.063,58,42.462,58,44C58,44.702,58.128,45.373,58.35,46z M47,44c0,2.206-1.794,4-4,4   s-4-1.794-4-4s1.794-4,4-4S47,41.794,47,44z M37.35,46h-9.7c0.223-0.627,0.35-1.298,0.35-2c0-1.538-0.586-2.937-1.54-4H38.54   C37.586,41.063,37,42.462,37,44C37,44.702,37.128,45.373,37.35,46z M114,84h-8v-8h8V84z M114,56h-8v-6c1.771,0,3.36-0.776,4.46-2   H114V56z M116,46h-4.35c0.223-0.627,0.35-1.298,0.35-2c0-1.538-0.586-2.937-1.54-4H116V46z M97,30h-7V14h7V30z M84,30V14h4v16H84z    M91.506,8.114c0.423-0.221,0.78-0.075,0.956,0.031C92.799,8.349,93,8.721,93,9.139V12h-4V9.575L91.506,8.114z M87,10v2h-2v-2H87z    M79,9.139c0-0.418,0.201-0.79,0.538-0.994c0.176-0.106,0.534-0.25,0.916-0.053L83,9.575V12h-4V9.139z M75,14h7v16h-7V14z M73,30   h-6V18h6V30z M63,30V18h2v12H63z M68.599,11.994C68.717,12.043,69,12.443,69,13.139V16h-2v-2.557L68.599,11.994z M65,14v2h-2v-2H65   z M59,13.139c0-0.695,0.283-1.095,0.313-1.158L61,13.454V16h-2V13.139z M61,18v12h-6V18H61z M53,30h-7V14h7V30z M40,30V14h4v16H40z    M47.506,8.114c0.422-0.221,0.78-0.075,0.956,0.031C48.799,8.349,49,8.721,49,9.139V12h-4V9.575L47.506,8.114z M43,10v2h-2v-2H43z    M35,9.139c0-0.418,0.201-0.79,0.538-0.994c0.176-0.106,0.534-0.25,0.916-0.053L39,9.575V12h-4V9.139z M31,14h7v16h-7V14z M19,32   h90v2H19V32z M21,36h86v2H21V36z M12,40h5.54C16.586,41.063,16,42.462,16,44c0,0.702,0.128,1.373,0.35,2H12V40z M17.54,48   c1.099,1.224,2.688,2,4.46,2v6h-8v-8H17.54z M5,115.418c0-4.09,3.328-7.418,7.418-7.418H13h28h46h28h0.582   c4.09,0,7.418,3.328,7.418,7.418V116H5V115.418z M125,120H3v-2h122V120z"/></g></svg>