<?xml version="1.0" encoding="iso-8859-1"?>
<!-- Generator: Adobe Illustrator 22.1.0, SVG Export Plug-In . SVG Version: 6.00 Build 0)  -->
<svg version="1.1" id="Layer_1" xmlns="http://www.w3.org/2000/svg" xmlns:xlink="http://www.w3.org/1999/xlink" x="0px" y="0px"
	 viewBox="0 0 100 100" style="enable-background:new 0 0 100 100;" xml:space="preserve">
<path style="fill:#7783AD;" d="M81,81H19V24c0-2.761,2.239-5,5-5h52c2.761,0,5,2.239,5,5V81z"/>
<g>
	<ellipse style="fill:#F37E98;" cx="26" cy="35.5" rx="7" ry="4.5"/>
	<path style="fill:#1F212B;" d="M26,40c-3.925,0-7-1.977-7-4.5s3.075-4.5,7-4.5s7,1.977,7,4.5S29.925,40,26,40z M26,32
		c-3.252,0-6,1.603-6,3.5s2.748,3.5,6,3.5s6-1.603,6-3.5S29.252,32,26,32z"/>
</g>
<g>
	<ellipse style="fill:#F37E98;" cx="41.5" cy="36.5" rx="8.5" ry="5.5"/>
	<path style="fill:#1F212B;" d="M41.5,42c-4.687,0-8.5-2.468-8.5-5.5s3.813-5.5,8.5-5.5s8.5,2.468,8.5,5.5S46.187,42,41.5,42z
		 M41.5,32c-4.136,0-7.5,2.019-7.5,4.5s3.364,4.5,7.5,4.5s7.5-2.019,7.5-4.5S45.636,32,41.5,32z"/>
</g>
<g>
	<ellipse style="fill:#F37E98;" cx="58.5" cy="36.5" rx="8.5" ry="5.5"/>
	<path style="fill:#1F212B;" d="M58.5,42c-4.687,0-8.5-2.468-8.5-5.5s3.813-5.5,8.5-5.5s8.5,2.468,8.5,5.5S63.187,42,58.5,42z
		 M58.5,32c-4.136,0-7.5,2.019-7.5,4.5s3.364,4.5,7.5,4.5s7.5-2.019,7.5-4.5S62.636,32,58.5,32z"/>
</g>
<g>
	<ellipse style="fill:#F37E98;" cx="74" cy="35.5" rx="7" ry="4.5"/>
	<path style="fill:#1F212B;" d="M74,40c-3.925,0-7-1.977-7-4.5s3.075-4.5,7-4.5s7,1.977,7,4.5S77.925,40,74,40z M74,32
		c-3.252,0-6,1.603-6,3.5s2.748,3.5,6,3.5s6-1.603,6-3.5S77.252,32,74,32z"/>
</g>
<g>
	<g>
		<path style="fill:#B3B2C3;" d="M71.5,69c0-11.874-9.626-21.5-21.5-21.5S28.5,57.126,28.5,69v11.5h43V69z"/>
		<path style="fill:#1F212B;" d="M71.5,81h-43c-0.276,0-0.5-0.224-0.5-0.5V69c0-12.131,9.869-22,22-22s22,9.869,22,22v11.5
			C72,80.776,71.776,81,71.5,81z M29,80h42V69c0-11.579-9.421-21-21-21c-11.58,0-21,9.421-21,21V80z"/>
	</g>
	<g>
		<path style="fill:#1F212B;" d="M66.5,69c0-9.113-7.387-16.5-16.5-16.5S33.5,59.887,33.5,69v11.5h33V69z"/>
		<path style="fill:#1F212B;" d="M66.5,81h-33c-0.276,0-0.5-0.224-0.5-0.5V69c0-9.374,7.626-17,17-17s17,7.626,17,17v11.5
			C67,80.777,66.776,81,66.5,81z M34,80.5h32V69c0-8.822-7.178-16-16-16s-16,7.178-16,16V80.5z"/>
	</g>
	<g>
		<path style="fill:#F69272;" d="M56.5,69c0-6.5-7-13.5-7-13.5c0,6-6,9-6,13.5c0,3.59,2.91,6.5,6.5,6.5S56.5,72.59,56.5,69z"/>
		<path style="fill:#1F212B;" d="M50,76c-3.86,0-7-3.141-7-7c0-2.252,1.348-4.093,2.774-6.041C47.36,60.792,49,58.552,49,55.5
			c0-0.202,0.122-0.385,0.309-0.462c0.188-0.075,0.402-0.034,0.545,0.108C50.146,55.438,57,62.369,57,69C57,72.859,53.859,76,50,76z
			 M49.923,56.692c-0.361,2.785-1.935,4.934-3.342,6.857C45.253,65.362,44,67.075,44,69c0,3.309,2.691,6,6,6s6-2.691,6-6
			C56,64.059,51.719,58.715,49.923,56.692z"/>
	</g>
	<g>
		<path style="fill:#FEF6AA;" d="M53.5,72c0-4.5-3-8.5-3-8.5c0,5-4,6-4,8.5c0,1.933,1.567,3.5,3.5,3.5S53.5,73.933,53.5,72z"/>
		<path style="fill:#1F212B;" d="M50,76c-2.206,0-4-1.794-4-4c0-1.225,0.785-2.114,1.615-3.056C48.733,67.677,50,66.24,50,63.5
			c0-0.215,0.138-0.406,0.342-0.475c0.206-0.065,0.429,0.002,0.558,0.175c0.126,0.169,3.1,4.187,3.1,8.8C54,74.206,52.206,76,50,76z
			 M50.875,65.009c-0.377,2.179-1.542,3.499-2.51,4.597C47.603,70.471,47,71.153,47,72c0,1.654,1.346,3,3,3s3-1.346,3-3
			C53,69.155,51.734,66.49,50.875,65.009z"/>
	</g>
	<g>
		<rect x="39.5" y="75.5" style="fill:#B77748;" width="21" height="5"/>
		<path style="fill:#1F212B;" d="M60.5,81h-21c-0.276,0-0.5-0.224-0.5-0.5v-5c0-0.276,0.224-0.5,0.5-0.5h21
			c0.276,0,0.5,0.224,0.5,0.5v5C61,80.776,60.776,81,60.5,81z M40,80h20v-4H40V80z"/>
	</g>
</g>
<g>
	<path style="fill:#1F212B;" d="M76.5,29c-0.276,0-0.5-0.224-0.5-0.5v-4c0-0.275-0.225-0.5-0.5-0.5h-7c-0.276,0-0.5-0.224-0.5-0.5
		s0.224-0.5,0.5-0.5h7c0.827,0,1.5,0.673,1.5,1.5v4C77,28.776,76.776,29,76.5,29z"/>
	<path style="fill:#1F212B;" d="M66.5,24h-2c-0.276,0-0.5-0.224-0.5-0.5s0.224-0.5,0.5-0.5h2c0.276,0,0.5,0.224,0.5,0.5
		S66.776,24,66.5,24z"/>
	<path style="fill:#1F212B;" d="M23.5,29c-0.276,0-0.5-0.224-0.5-0.5v-4c0-0.827,0.673-1.5,1.5-1.5h37c0.276,0,0.5,0.224,0.5,0.5
		S61.776,24,61.5,24h-37c-0.276,0-0.5,0.225-0.5,0.5v4C24,28.776,23.776,29,23.5,29z"/>
	<path style="fill:#1F212B;" d="M81,82H19c-0.552,0-1-0.447-1-1V24c0-3.309,2.691-6,6-6h52c3.309,0,6,2.691,6,6v57
		C82,81.553,81.553,82,81,82z M20,80h60V24c0-2.206-1.794-4-4-4H24c-2.206,0-4,1.794-4,4V80z"/>
</g>
<g>
	<path style="fill:#B3B2C3;" d="M84.5,27.938v7.125c0,0.245-0.217,0.438-0.493,0.438H15.993c-0.276,0-0.493-0.193-0.493-0.438
		v-7.125c0-0.245,0.217-0.438,0.493-0.438h68.014C84.283,27.5,84.5,27.692,84.5,27.938z"/>
	<path style="fill:#1F212B;" d="M84.5,36h-69c-0.276,0-0.5-0.224-0.5-0.5v-8c0-0.276,0.224-0.5,0.5-0.5h69
		c0.276,0,0.5,0.224,0.5,0.5v8C85,35.776,84.776,36,84.5,36z M16,35h68v-7H16V35z"/>
</g>
<g>
	<circle style="fill:#FEF6AA;" cx="50" cy="36" r="4.5"/>
	<path style="fill:#1F212B;" d="M50,41c-2.757,0-5-2.243-5-5s2.243-5,5-5s5,2.243,5,5S52.757,41,50,41z M50,32c-2.206,0-4,1.794-4,4
		s1.794,4,4,4s4-1.794,4-4S52.206,32,50,32z"/>
</g>
<g>
	<circle style="fill:#FEF6AA;" cx="67" cy="36" r="3.5"/>
	<path style="fill:#1F212B;" d="M67,40c-2.206,0-4-1.794-4-4s1.794-4,4-4s4,1.794,4,4S69.206,40,67,40z M67,33c-1.654,0-3,1.346-3,3
		s1.346,3,3,3s3-1.346,3-3S68.654,33,67,33z"/>
</g>
<g>
	<circle style="fill:#FEF6AA;" cx="33" cy="36" r="3.5"/>
	<path style="fill:#1F212B;" d="M33,40c-2.206,0-4-1.794-4-4s1.794-4,4-4s4,1.794,4,4S35.206,40,33,40z M33,33c-1.654,0-3,1.346-3,3
		s1.346,3,3,3s3-1.346,3-3S34.654,33,33,33z"/>
</g>
</svg>
