<?xml version="1.0" encoding="utf-8"?>
<!-- Generator: Adobe Illustrator 16.0.0, SVG Export Plug-In . SVG Version: 6.00 Build 0)  -->
<!DOCTYPE svg PUBLIC "-//W3C//DTD SVG 1.1//EN" "http://www.w3.org/Graphics/SVG/1.1/DTD/svg11.dtd">
<svg version="1.1" xmlns="http://www.w3.org/2000/svg" xmlns:xlink="http://www.w3.org/1999/xlink" x="0px" y="0px" width="512px"
	 height="512px" viewBox="0 0 512 512" enable-background="new 0 0 512 512" xml:space="preserve">
<g id="Layer_1">
	<g>
		<path fill-rule="evenodd" clip-rule="evenodd" fill="#75A0D5" d="M19.762,249.714L278.434,10.47
			c3.751-3.47,9.669-3.243,13.146,0.515l151.715,164.033c3.478,3.759,3.244,9.676-0.512,13.15L184.112,427.409
			c-3.751,3.471-9.668,3.247-13.146-0.516L19.25,262.861C15.776,259.102,16.006,253.185,19.762,249.714"/>
		<path opacity="0.25" fill-rule="evenodd" clip-rule="evenodd" fill="#272323" d="M374.636,251.191L184.112,427.409
			c-3.763,3.485-9.666,3.254-13.15-0.519l-58.334-63.069V260.504c0-5.135,4.181-9.313,9.305-9.313H374.636z"/>
		<path fill-rule="evenodd" clip-rule="evenodd" fill="#75A0D5" d="M133.565,261.938H485.91c5.113,0,9.301,4.188,9.301,9.305
			v223.438c0,5.121-4.188,9.309-9.301,9.309H133.565c-5.114,0-9.301-4.188-9.301-9.309V271.244
			C124.264,266.126,128.451,261.938,133.565,261.938"/>
		<rect x="124.264" y="315.22" fill-rule="evenodd" clip-rule="evenodd" fill="#272323" width="370.948" height="45.101"/>
		<path fill-rule="evenodd" clip-rule="evenodd" fill="#E5595F" d="M385.897,418.519c16.391,0,29.682,13.291,29.682,29.684
			c0,16.39-13.291,29.681-29.682,29.681c-16.39,0-29.684-13.291-29.684-29.681C356.213,431.81,369.508,418.519,385.897,418.519"/>
		<path opacity="0.63" fill-rule="evenodd" clip-rule="evenodd" fill="#F59F35" d="M421.218,418.519
			c16.39,0,29.685,13.291,29.685,29.684c0,16.39-13.294,29.681-29.685,29.681s-29.684-13.291-29.684-29.681
			C391.534,431.81,404.828,418.519,421.218,418.519"/>
		<rect x="161.372" y="425.165" fill-rule="evenodd" clip-rule="evenodd" fill="#BCCBE2" width="136.006" height="46.557"/>
		<path fill="#272323" d="M206.444,447.212c0.613-2.343,1.042-4.675,1.258-6.909c-8.437,4.847-15.789,12.313-20.348,19.01
			c-2.112,3.103-3.614,6.04-4.335,8.447c-0.649,2.191-0.649,3.874,0.151,4.721c0.678,0.72,2.043,0.918,4.191,0.403
			C195.892,470.846,203.406,458.888,206.444,447.212 M145.486,454.852c-0.324,0.342-0.872,0.357-1.214,0.033
			c-0.342-0.325-0.36-0.872-0.036-1.215c0.08-0.083,28.03-29.104,51.897-31.559c5.316-0.544,8.891,1.359,11.028,4.746
			c1.549,2.454,2.313,5.684,2.415,9.305c0.011,0.393,0.018,0.793,0.011,1.197c5.276-2.609,10.887-4.173,16.48-3.975
			c14.112,0.508,14.952,7.457,11.838,14.718c2.538-1.571,4.912-1.82,6.577,0.577c0.93,1.34,2.173,1.121,3.496,0.205
			c1.661-1.153,3.47-3.315,5.082-5.241c1.935-2.313,3.625-4.334,4.99-4.334c1.19,0,1.886,1.074,1.886,3.82
			c0,3.297,0.984,4.148,2.245,4.148c0.857,0,1.885-0.303,2.868-0.583c1.016-0.295,2-0.58,2.857-0.58c1.586,0,2.66,0.746,2.66,3.25
			c0,5.899,42.358-6.447,42.474-6.483c0.458-0.13,0.937,0.133,1.067,0.59c0.133,0.454-0.13,0.938-0.584,1.067
			c-0.126,0.036-44.683,13.031-44.683,4.826c0-1.171-0.378-1.52-0.934-1.52c-0.631,0-1.488,0.248-2.377,0.507
			c-1.104,0.318-2.26,0.656-3.348,0.656c-2.231,0-3.976-1.207-3.976-5.877c0-1.503-0.054-2.094-0.155-2.094
			c-0.562,0-2.007,1.73-3.668,3.716c-1.683,2.011-3.572,4.267-5.424,5.553c-2.148,1.492-4.223,1.77-5.896-0.642v-0.003
			c-1.478-2.126-3.992-0.966-6.652,1.459c-4.03,7.233-10.718,13.929-10.762,13.968c-0.334,0.339-0.882,0.339-1.218,0
			c-0.31-0.306-0.335-0.8-0.076-1.139c0.541-0.868,5.232-8.396,10.191-13.154c4.127-7.366,5.179-15.193-8.541-15.684
			c-5.597-0.202-11.226,1.463-16.495,4.199c-0.18,2.677-0.659,5.503-1.395,8.332c-3.176,12.195-11.172,24.722-20.354,26.917
			c-2.818,0.678-4.735,0.285-5.849-0.897c-1.261-1.337-1.376-3.604-0.548-6.393c0.764-2.566,2.35-5.668,4.567-8.923
			c4.851-7.129,12.797-15.093,21.907-20.074c0.029-0.702,0.033-1.391,0.014-2.064c-0.094-3.322-0.771-6.257-2.148-8.433
			c-1.787-2.829-4.825-4.414-9.395-3.946C173.051,426.22,145.562,454.77,145.486,454.852z"/>
		<path fill-rule="evenodd" clip-rule="evenodd" fill="#FBC958" d="M351.759,166.37l18.423,18.422c1.654,1.657,1.654,4.36,0,6.018
			l-24.437,24.437c-1.658,1.654-4.361,1.654-6.018,0l-18.423-18.422c-1.658-1.658-1.658-4.36,0-6.015l24.441-24.44
			C347.399,164.716,350.102,164.716,351.759,166.37"/>
		<path fill-rule="evenodd" clip-rule="evenodd" fill="#E5B24E" d="M354.952,169.566l4.231,4.231l-6.956,6.955l3.712,3.712
			l6.955-6.956l4.23,4.23l-6.955,6.956l6.062,6.062l-4.231,4.231l-6.062-6.065l-4.231-4.228l-3.711-3.711l-4.231-4.231l-6.202-6.206
			l4.231-4.227l6.202,6.202L354.952,169.566z M354.812,206.177l-4.231,4.231l-6.062-6.066l-7.849,7.853l-4.231-4.23l7.853-7.849
			l-3.716-3.712l-7.845,7.846l-4.23-4.227l7.845-7.849l-6.202-6.202l4.231-4.231l6.202,6.202l4.231,4.231l3.712,3.711l4.23,4.231
			L354.812,206.177z"/>
		<path fill-rule="evenodd" clip-rule="evenodd" fill="#608DBF" d="M223.544,119.005l49.047-46.035l8.295,7.932l-49.086,45.804
			L223.544,119.005z M178.205,161.563l37.325-35.04l8.126,7.78l-37.332,34.827L178.205,161.563z M116.563,219.414l53.635-50.337
			l8.004,7.64l-53.707,50.11L116.563,219.414z M57.698,274.656l50.817-47.692l7.82,7.467l-51.261,47.837L57.698,274.656z"/>
	</g>
</g>
<g id="Layer_2">
</g>
</svg>
